<svg xmlns="http://www.w3.org/2000/svg" xmlns:xlink="http://www.w3.org/1999/xlink" width="500" zoomAndPan="magnify" viewBox="0 0 375 135.000003" height="180" preserveAspectRatio="xMidYMid meet" version="1.0"><defs><g/><clipPath id="81da5505c5"><path d="M 14.789062 19.417969 L 360.210938 19.417969 L 360.210938 114.414062 L 14.789062 114.414062 Z M 14.789062 19.417969 " clip-rule="nonzero"/></clipPath><clipPath id="8e251d595e"><path d="M 24.113281 28.359375 L 187.5 28.359375 L 187.5 105.617188 L 24.113281 105.617188 Z M 24.113281 28.359375 " clip-rule="nonzero"/></clipPath></defs><g clip-path="url(#81da5505c5)"><path stroke-linecap="butt" transform="matrix(2.159007, 0, 0, 2.155945, 14.790236, 19.418633)" fill="none" stroke-linejoin="miter" d="M -0.000543369 -0.000308126 L 159.99052 -0.000308126 L 159.99052 44.062081 L -0.000543369 44.062081 L -0.000543369 -0.000308126 " stroke="#000000" stroke-width="0.689655" stroke-opacity="1" stroke-miterlimit="4"/></g><g clip-path="url(#8e251d595e)"><path fill="#000000" d="M 24.113281 28.359375 L 188.425781 28.359375 L 188.425781 106.410156 L 24.113281 106.410156 Z M 24.113281 28.359375 " fill-opacity="1" fill-rule="nonzero"/></g><g fill="#ffffff" fill-opacity="1"><g transform="translate(44.095396, 76.887636)"><g><path d="M 2.660156 0 L 7.699219 0 L 7.699219 -8.964844 L 10.359375 -8.964844 C 10.773438 -8.964844 11.121094 -8.964844 11.5 -8.996094 L 16.253906 0 L 22.113281 0 L 16.125 -10.867188 C 17.011719 -11.722656 17.679688 -12.832031 18.25 -14.289062 L 21.320312 -22.175781 L 15.871094 -22.175781 L 13.78125 -16.410156 C 13.019531 -14.320312 12.101562 -13.65625 9.597656 -13.65625 L 7.699219 -13.65625 L 7.699219 -22.175781 L 2.660156 -22.175781 Z M 2.660156 0 "/></g></g></g><g fill="#ffffff" fill-opacity="1"><g transform="translate(69.53551, 76.887636)"><g><path d="M 2.660156 0 L 7.699219 0 L 7.699219 -22.175781 L 2.660156 -22.175781 Z M 2.660156 0 "/></g></g></g><g fill="#ffffff" fill-opacity="1"><g transform="translate(82.303082, 76.887636)"><g><path d="M 2.660156 0 L 17.394531 0 L 17.394531 -4.71875 L 7.699219 -4.71875 L 7.699219 -22.175781 L 2.660156 -22.175781 Z M 2.660156 0 "/></g></g></g><g fill="#ffffff" fill-opacity="1"><g transform="translate(102.959309, 76.887636)"><g><path d="M 2.660156 0 L 17.394531 0 L 17.394531 -4.71875 L 7.699219 -4.71875 L 7.699219 -22.175781 L 2.660156 -22.175781 Z M 2.660156 0 "/></g></g></g><g fill="#ffffff" fill-opacity="1"><g transform="translate(123.615535, 76.887636)"><g><path d="M 2.660156 0 L 17.582031 0 L 17.582031 -4.277344 L 7.667969 -4.277344 L 7.667969 -9.125 L 16.378906 -9.125 L 16.378906 -13.335938 L 7.667969 -13.335938 L 7.667969 -17.929688 L 17.234375 -17.929688 L 17.234375 -22.175781 L 2.660156 -22.175781 Z M 2.660156 0 "/></g></g></g><g fill="#ffffff" fill-opacity="1"><g transform="translate(145.222206, 76.887636)"><g><path d="M 2.660156 0 L 7.699219 0 L 7.699219 -6.90625 L 11.023438 -6.90625 L 14.984375 0 L 20.816406 0 L 16.222656 -7.699219 C 18.882812 -8.871094 20.433594 -11.277344 20.433594 -14.542969 C 20.433594 -19.261719 17.203125 -22.175781 12.132812 -22.175781 L 2.660156 -22.175781 Z M 7.636719 -11.152344 L 7.636719 -17.867188 L 11.46875 -17.867188 C 13.941406 -17.867188 15.332031 -16.664062 15.332031 -14.511719 C 15.332031 -12.355469 13.941406 -11.152344 11.46875 -11.152344 Z M 7.636719 -11.152344 "/></g></g></g><g fill="#000000" fill-opacity="1"><g transform="translate(210.219306, 87.867655)"><g><path d="M 4.683594 0 L 23.472656 0 C 37.769531 0 47.261719 -8.792969 47.261719 -22.144531 C 47.261719 -35.429688 37.769531 -44.289062 23.472656 -44.289062 L 4.683594 -44.289062 Z M 17.460938 -11.453125 L 17.460938 -32.835938 L 23.09375 -32.835938 C 29.863281 -32.835938 34.226562 -28.660156 34.226562 -22.144531 C 34.226562 -15.628906 29.863281 -11.453125 23.09375 -11.453125 Z M 17.460938 -11.453125 "/></g></g></g><g fill="#000000" fill-opacity="1"><g transform="translate(259.62845, 87.867655)"><g><path d="M 4.683594 0 L 17.460938 0 L 17.460938 -44.289062 L 4.683594 -44.289062 Z M 4.683594 0 "/></g></g></g><g fill="#000000" fill-opacity="1"><g transform="translate(281.770848, 87.867655)"><g><path d="M 4.683594 0 L 35.746094 0 L 35.746094 -10.4375 L 17.335938 -10.4375 L 17.335938 -17.273438 L 33.34375 -17.273438 L 33.34375 -27.519531 L 17.335938 -27.519531 L 17.335938 -33.976562 L 35.050781 -33.976562 L 35.050781 -44.289062 L 4.683594 -44.289062 Z M 4.683594 0 "/></g></g></g><g fill="#000000" fill-opacity="1"><g transform="translate(320.361857, 87.867655)"><g><path d="M 8.605469 0.824219 C 12.527344 0.824219 15.3125 -1.960938 15.3125 -5.757812 C 15.3125 -9.554688 12.527344 -12.335938 8.605469 -12.335938 C 4.617188 -12.335938 1.835938 -9.554688 1.835938 -5.757812 C 1.835938 -1.960938 4.617188 0.824219 8.605469 0.824219 Z M 8.605469 0.824219 "/></g></g></g></svg>