<svg xmlns="http://www.w3.org/2000/svg" xmlns:xlink="http://www.w3.org/1999/xlink" width="500" zoomAndPan="magnify" viewBox="0 0 375 374.999991" height="500" preserveAspectRatio="xMidYMid meet" version="1.0"><defs><g/><clipPath id="bc386365ab"><path d="M 37.507812 146.144531 L 337.492188 146.144531 L 337.492188 228.644531 L 37.507812 228.644531 Z M 37.507812 146.144531 " clip-rule="nonzero"/></clipPath><clipPath id="31109dd8e9"><path d="M 45.605469 153.90625 L 187.5 153.90625 L 187.5 221 L 45.605469 221 Z M 45.605469 153.90625 " clip-rule="nonzero"/></clipPath></defs><g clip-path="url(#bc386365ab)"><path stroke-linecap="butt" transform="matrix(0.75, 0, 0, 0.748936, 37.509406, 146.142792)" fill="none" stroke-linejoin="miter" d="M -0.00212525 0.00232229 L 399.977068 0.00232229 L 399.977068 110.158582 L -0.00212525 110.158582 L -0.00212525 0.00232229 " stroke="#000000" stroke-width="6" stroke-opacity="1" stroke-miterlimit="4"/></g><g clip-path="url(#31109dd8e9)"><path fill="#000000" d="M 45.605469 153.90625 L 187.710938 153.90625 L 187.710938 221.09375 L 45.605469 221.09375 Z M 45.605469 153.90625 " fill-opacity="1" fill-rule="nonzero"/></g><g fill="#ffffff" fill-opacity="1"><g transform="translate(62.959611, 196.052026)"><g><path d="M 2.3125 0 L 6.6875 0 L 6.6875 -7.785156 L 8.996094 -7.785156 C 9.355469 -7.785156 9.65625 -7.785156 9.988281 -7.8125 L 14.113281 0 L 19.203125 0 L 14.003906 -9.4375 C 14.773438 -10.179688 15.351562 -11.144531 15.847656 -12.410156 L 18.515625 -19.257812 L 13.785156 -19.257812 L 11.96875 -14.253906 C 11.308594 -12.4375 10.511719 -11.859375 8.335938 -11.859375 L 6.6875 -11.859375 L 6.6875 -19.257812 L 2.3125 -19.257812 Z M 2.3125 0 "/></g></g></g><g fill="#ffffff" fill-opacity="1"><g transform="translate(85.053198, 196.052026)"><g><path d="M 2.3125 0 L 6.6875 0 L 6.6875 -19.257812 L 2.3125 -19.257812 Z M 2.3125 0 "/></g></g></g><g fill="#ffffff" fill-opacity="1"><g transform="translate(96.141256, 196.052026)"><g><path d="M 2.3125 0 L 15.105469 0 L 15.105469 -4.097656 L 6.6875 -4.097656 L 6.6875 -19.257812 L 2.3125 -19.257812 Z M 2.3125 0 "/></g></g></g><g fill="#ffffff" fill-opacity="1"><g transform="translate(114.080253, 196.052026)"><g><path d="M 2.3125 0 L 15.105469 0 L 15.105469 -4.097656 L 6.6875 -4.097656 L 6.6875 -19.257812 L 2.3125 -19.257812 Z M 2.3125 0 "/></g></g></g><g fill="#ffffff" fill-opacity="1"><g transform="translate(132.01925, 196.052026)"><g><path d="M 2.3125 0 L 15.269531 0 L 15.269531 -3.714844 L 6.660156 -3.714844 L 6.660156 -7.925781 L 14.226562 -7.925781 L 14.226562 -11.582031 L 6.660156 -11.582031 L 6.660156 -15.574219 L 14.96875 -15.574219 L 14.96875 -19.257812 L 2.3125 -19.257812 Z M 2.3125 0 "/></g></g></g><g fill="#ffffff" fill-opacity="1"><g transform="translate(150.783665, 196.052026)"><g><path d="M 2.3125 0 L 6.6875 0 L 6.6875 -5.996094 L 9.574219 -5.996094 L 13.015625 0 L 18.078125 0 L 14.085938 -6.6875 C 16.398438 -7.703125 17.746094 -9.792969 17.746094 -12.628906 C 17.746094 -16.726562 14.941406 -19.257812 10.539062 -19.257812 L 2.3125 -19.257812 Z M 6.628906 -9.683594 L 6.628906 -15.519531 L 9.960938 -15.519531 C 12.105469 -15.519531 13.316406 -14.472656 13.316406 -12.601562 C 13.316406 -10.730469 12.105469 -9.683594 9.960938 -9.683594 Z M 6.628906 -9.683594 "/></g></g></g><g fill="#000000" fill-opacity="1"><g transform="translate(207.230685, 205.58766)"><g><path d="M 4.066406 0 L 20.382812 0 C 32.800781 0 41.042969 -7.636719 41.042969 -19.230469 C 41.042969 -30.769531 32.800781 -38.460938 20.382812 -38.460938 L 4.066406 -38.460938 Z M 15.164062 -9.945312 L 15.164062 -28.515625 L 20.054688 -28.515625 C 25.933594 -28.515625 29.726562 -24.890625 29.726562 -19.230469 C 29.726562 -13.570312 25.933594 -9.945312 20.054688 -9.945312 Z M 15.164062 -9.945312 "/></g></g></g><g fill="#000000" fill-opacity="1"><g transform="translate(250.140284, 205.58766)"><g><path d="M 4.066406 0 L 15.164062 0 L 15.164062 -38.460938 L 4.066406 -38.460938 Z M 4.066406 0 "/></g></g></g><g fill="#000000" fill-opacity="1"><g transform="translate(269.369952, 205.58766)"><g><path d="M 4.066406 0 L 31.042969 0 L 31.042969 -9.066406 L 15.054688 -9.066406 L 15.054688 -15 L 28.957031 -15 L 28.957031 -23.902344 L 15.054688 -23.902344 L 15.054688 -29.503906 L 30.441406 -29.503906 L 30.441406 -38.460938 L 4.066406 -38.460938 Z M 4.066406 0 "/></g></g></g><g fill="#000000" fill-opacity="1"><g transform="translate(302.884491, 205.58766)"><g><path d="M 7.472656 0.714844 C 10.878906 0.714844 13.296875 -1.703125 13.296875 -5 C 13.296875 -8.296875 10.878906 -10.714844 7.472656 -10.714844 C 4.011719 -10.714844 1.59375 -8.296875 1.59375 -5 C 1.59375 -1.703125 4.011719 0.714844 7.472656 0.714844 Z M 7.472656 0.714844 "/></g></g></g></svg>